<mxfile host="app.diagrams.net" modified="2020-06-28T13:38:38.389Z" agent="5.0 (X11; Linux x86_64) AppleWebKit/537.36 (KHTML, like Gecko) Chrome/83.0.4103.61 Safari/537.36" etag="fCAX9JcKyUajFBeyjw94" version="13.3.5" type="github">
  <diagram id="VZ25KQVJINhPZAaNk03m" name="Page-1">
    <mxGraphModel dx="683" dy="1602" grid="1" gridSize="10" guides="1" tooltips="1" connect="1" arrows="1" fold="1" page="1" pageScale="1" pageWidth="827" pageHeight="1169" math="0" shadow="0">
      <root>
        <mxCell id="0" />
        <mxCell id="1" parent="0" />
        <mxCell id="Ph1uTD9Jx0tFGjU2Y2NS-2" value="&lt;p style=&quot;margin: 4px 0px 0px ; text-align: center ; font-size: 14px&quot;&gt;&lt;b style=&quot;font-size: 14px&quot;&gt;&lt;font style=&quot;font-size: 14px&quot;&gt;Adventure&lt;/font&gt;&lt;/b&gt;&lt;/p&gt;&lt;hr style=&quot;font-size: 14px&quot;&gt;&lt;p style=&quot;margin: 0px 0px 0px 4px ; font-size: 14px&quot;&gt;&lt;br&gt;&lt;/p&gt;" style="verticalAlign=top;align=left;overflow=fill;fontSize=14;fontFamily=Helvetica;html=1;fillColor=#ffe6cc;strokeColor=#d79b00;" parent="1" vertex="1">
          <mxGeometry x="120" y="-610" width="160" height="60" as="geometry" />
        </mxCell>
        <mxCell id="Ph1uTD9Jx0tFGjU2Y2NS-10" value="" style="endArrow=none;html=1;endSize=12;startArrow=none;startSize=14;startFill=0;edgeStyle=orthogonalEdgeStyle;exitX=1;exitY=0.5;exitDx=0;exitDy=0;endFill=0;fontSize=14;entryX=0.5;entryY=0;entryDx=0;entryDy=0;" parent="1" source="Ph1uTD9Jx0tFGjU2Y2NS-2" target="t2HeJAM-ClQdXE5039P4-1" edge="1">
          <mxGeometry x="-0.0029" y="-20" relative="1" as="geometry">
            <mxPoint x="220" y="-480" as="sourcePoint" />
            <mxPoint x="470" y="-385" as="targetPoint" />
            <Array as="points" />
            <mxPoint as="offset" />
          </mxGeometry>
        </mxCell>
        <mxCell id="Ph1uTD9Jx0tFGjU2Y2NS-11" value="1" style="resizable=0;html=1;align=left;verticalAlign=top;labelBackgroundColor=#ffffff;fontSize=14;" parent="Ph1uTD9Jx0tFGjU2Y2NS-10" connectable="0" vertex="1">
          <mxGeometry x="-1" relative="1" as="geometry">
            <mxPoint as="offset" />
          </mxGeometry>
        </mxCell>
        <mxCell id="Ph1uTD9Jx0tFGjU2Y2NS-12" value="1" style="resizable=0;html=1;align=right;verticalAlign=top;labelBackgroundColor=#ffffff;fontSize=14;" parent="Ph1uTD9Jx0tFGjU2Y2NS-10" connectable="0" vertex="1">
          <mxGeometry x="1" relative="1" as="geometry">
            <mxPoint x="-10" y="-30" as="offset" />
          </mxGeometry>
        </mxCell>
        <mxCell id="t2HeJAM-ClQdXE5039P4-1" value="&lt;p style=&quot;margin: 4px 0px 0px ; text-align: center ; font-size: 14px&quot;&gt;&lt;b style=&quot;font-size: 14px&quot;&gt;&lt;font style=&quot;font-size: 14px&quot;&gt;Session&lt;/font&gt;&lt;/b&gt;&lt;/p&gt;&lt;hr style=&quot;font-size: 14px&quot;&gt;&lt;p style=&quot;margin: 0px 0px 0px 4px ; font-size: 14px&quot;&gt;&lt;/p&gt;&lt;span style=&quot;font-size: 14px&quot;&gt;&amp;nbsp;- startDate: Date&lt;br style=&quot;font-size: 14px&quot;&gt;&amp;nbsp;- endDate: Date&lt;br&gt;&amp;nbsp;- price : double&lt;br&gt;&lt;br style=&quot;font-size: 14px&quot;&gt;&lt;/span&gt;" style="verticalAlign=top;align=left;overflow=fill;fontSize=14;fontFamily=Helvetica;html=1;fillColor=#f5f5f5;strokeColor=#666666;fontColor=#333333;" vertex="1" parent="1">
          <mxGeometry x="344" y="-530" width="140" height="100" as="geometry" />
        </mxCell>
        <mxCell id="t2HeJAM-ClQdXE5039P4-2" value="La classe mère de Adventure est définie dans le ms Adventure" style="shape=note;whiteSpace=wrap;html=1;backgroundOutline=1;darkOpacity=0.05;fillColor=#fff2cc;strokeColor=#d6b656;" vertex="1" parent="1">
          <mxGeometry x="146" y="-536" width="108" height="106" as="geometry" />
        </mxCell>
        <mxCell id="t2HeJAM-ClQdXE5039P4-3" value="&lt;p style=&quot;margin: 4px 0px 0px ; text-align: center ; font-size: 14px&quot;&gt;&lt;b style=&quot;font-size: 14px&quot;&gt;&lt;font style=&quot;font-size: 14px&quot;&gt;Order&lt;/font&gt;&lt;/b&gt;&lt;/p&gt;&lt;hr style=&quot;font-size: 14px&quot;&gt;&lt;p style=&quot;margin: 0px 0px 0px 4px ; font-size: 14px&quot;&gt;&lt;/p&gt;&lt;span style=&quot;font-size: 14px&quot;&gt;&amp;nbsp;&lt;br style=&quot;font-size: 14px&quot;&gt;&lt;/span&gt;" style="verticalAlign=top;align=left;overflow=fill;fontSize=14;fontFamily=Helvetica;html=1;fillColor=#ffe6cc;strokeColor=#d79b00;" vertex="1" parent="1">
          <mxGeometry x="344" y="-350" width="140" height="44" as="geometry" />
        </mxCell>
        <mxCell id="t2HeJAM-ClQdXE5039P4-4" value="La classe mère de order est définie dans le ms order" style="shape=note;whiteSpace=wrap;html=1;backgroundOutline=1;darkOpacity=0.05;fillColor=#fff2cc;strokeColor=#d6b656;" vertex="1" parent="1">
          <mxGeometry x="510" y="-400" width="108" height="106" as="geometry" />
        </mxCell>
        <mxCell id="t2HeJAM-ClQdXE5039P4-5" value="" style="endArrow=none;html=1;endSize=12;startArrow=none;startSize=14;startFill=0;edgeStyle=orthogonalEdgeStyle;exitX=0.5;exitY=1;exitDx=0;exitDy=0;endFill=0;fontSize=14;entryX=0.5;entryY=0;entryDx=0;entryDy=0;" edge="1" parent="1" source="t2HeJAM-ClQdXE5039P4-1" target="t2HeJAM-ClQdXE5039P4-3">
          <mxGeometry x="-0.0029" y="-20" relative="1" as="geometry">
            <mxPoint x="290" y="-570" as="sourcePoint" />
            <mxPoint x="424" y="-520" as="targetPoint" />
            <Array as="points" />
            <mxPoint as="offset" />
          </mxGeometry>
        </mxCell>
        <mxCell id="t2HeJAM-ClQdXE5039P4-6" value="1" style="resizable=0;html=1;align=left;verticalAlign=top;labelBackgroundColor=#ffffff;fontSize=14;" connectable="0" vertex="1" parent="t2HeJAM-ClQdXE5039P4-5">
          <mxGeometry x="-1" relative="1" as="geometry">
            <mxPoint as="offset" />
          </mxGeometry>
        </mxCell>
        <mxCell id="t2HeJAM-ClQdXE5039P4-7" value="&lt;span style=&quot;color: rgba(0 , 0 , 0 , 0) ; font-family: monospace ; font-size: 0px ; background-color: rgb(248 , 249 , 250)&quot;&gt;%3CmxGraphModel%3E%3Croot%3E%3CmxCell%20id%3D%220%22%2F%3E%3CmxCell%20id%3D%221%22%20parent%3D%220%22%2F%3E%3CmxCell%20id%3D%222%22%20value%3D%221..n%22%20style%3D%22resizable%3D0%3Bhtml%3D1%3Balign%3Dleft%3BverticalAlign%3Dtop%3BlabelBackgroundColor%3D%23ffffff%3BfontSize%3D14%3B%22%20connectable%3D%220%22%20vertex%3D%221%22%20parent%3D%221%22%3E%3CmxGeometry%20x%3D%22430%22%20y%3D%22-900%22%20as%3D%22geometry%22%2F%3E%3C%2FmxCell%3E%3C%2Froot%3E%3C%2FmxGraphModel%3E&lt;/span&gt;" style="resizable=0;html=1;align=right;verticalAlign=top;labelBackgroundColor=#ffffff;fontSize=14;" connectable="0" vertex="1" parent="t2HeJAM-ClQdXE5039P4-5">
          <mxGeometry x="1" relative="1" as="geometry">
            <mxPoint x="-10" y="-30" as="offset" />
          </mxGeometry>
        </mxCell>
        <mxCell id="t2HeJAM-ClQdXE5039P4-8" value="1..n" style="resizable=0;html=1;align=left;verticalAlign=top;labelBackgroundColor=#ffffff;fontSize=14;" connectable="0" vertex="1" parent="1">
          <mxGeometry x="414" y="-380" as="geometry" />
        </mxCell>
      </root>
    </mxGraphModel>
  </diagram>
</mxfile>
